<svg width="17" height="17" viewBox="0 0 17 17" fill="none" xmlns="http://www.w3.org/2000/svg">
<path d="M7.84815 2.13274C8.19523 1.32678 9.33797 1.32678 9.68506 2.13274L10.7225 4.54183C10.8673 4.87801 11.1842 5.10823 11.5486 5.14203L14.1604 5.38427C15.0342 5.46531 15.3873 6.55212 14.728 7.13127L12.7574 8.86241C12.4825 9.10398 12.3614 9.47648 12.4419 9.83355L13.0186 12.3924C13.2115 13.2484 12.287 13.9201 11.5325 13.4721L9.27716 12.1329C8.96244 11.946 8.57076 11.946 8.25604 12.1329L6.00069 13.4721C5.24616 13.9201 4.32166 13.2484 4.5146 12.3924L5.0913 9.83355C5.17178 9.47648 5.05074 9.10398 4.77576 8.86241L2.80517 7.13127C2.14591 6.55212 2.49903 5.46531 3.37281 5.38427L5.98458 5.14203C6.34904 5.10823 6.66591 4.87801 6.81068 4.54183L7.84815 2.13274Z" fill="#FFB802"/>
</svg>
